# xmcd
#
# Track frame offsets:
# 150
# 16234
# 28695
# 43517
# 61736
# 68571
# 81394
# 101326
# 120055
# 133642
# 151557
#
# Disc length: 2177 seconds
#
#
# Revision: 0
# Processed by: cddbd v1.4PL0 Copyright (c) Steve Scherf et al.
# Submitted via: FreeRIP 2.00 
#
DISCID=74087f0b
DTITLE=Johnny Cash - Strawberry Cake
DYEAR=1976
DGENRE=Country
TTITLE0=Big River
TTITLE1=Doin' My Time
TTITLE2=I Still Miss Someone
TTITLE3=I Got Stripes
TTITLE4=Church In The Wildwood
TTITLE5=Lonesome Valley
TTITLE6=Strawberry Cake
TTITLE7=Rock Island Line
TTITLE8=Navajo
TTITLE9=Destination Victoria Station
TTITLE10=Fourth Man
EXTD=Columbia KC 34088
EXTT0=
EXTT1=
EXTT2=
EXTT3=
EXTT4=
EXTT5=
EXTT6=
EXTT7=
EXTT8=
EXTT9=
EXTT10=
PLAYORDER=
